<svg width="70" height="70" viewBox="0 0 70 70" fill="none" xmlns="http://www.w3.org/2000/svg">
<path d="M35.1648 20.5881C37.4368 20.5881 39.2825 18.7403 39.2825 16.4704C39.2825 14.2005 37.4368 12.3527 35.1648 12.3527C32.8928 12.3527 31.0471 14.2005 31.0471 16.4704C31.0473 18.7405 32.8928 20.5881 35.1648 20.5881V20.5881ZM26.6923 46.6613C24.85 45.3185 22.2785 45.7316 20.9421 47.5701C19.5912 49.4286 20.0293 52.0005 21.8548 53.3203C23.6924 54.6593 26.2741 54.2431 27.605 52.4115C28.9559 50.5532 28.5178 47.9811 26.6923 46.6613ZM35 32.9413C33.8661 32.9413 32.9413 33.864 32.9413 35C32.9413 36.136 33.8661 37.0587 35 37.0587C36.1339 37.0587 37.0587 36.136 37.0587 35C37.0587 33.864 36.1339 32.9413 35 32.9413ZM70 35C70 15.7006 54.2975 0 35 0C15.7025 0 0 15.7006 0 35C0 54.2994 15.7025 70 35 70C54.2975 70 70 54.2994 70 35ZM35.1648 8.2352C39.7046 8.2352 43.4 11.9285 43.4 16.4704C43.4 21.0123 39.7046 24.7056 35.1648 24.7056C30.6248 24.7056 26.9294 21.0123 26.9294 16.4704C26.9296 11.9287 30.625 8.2352 35.1648 8.2352ZM9.71099 26.7305C11.1168 22.4012 15.7544 20.0346 20.0856 21.4406C24.4043 22.846 26.7769 27.5005 25.3734 31.8171C23.9676 36.1471 19.3302 38.5125 14.9988 37.107C10.6801 35.7016 8.30775 31.0473 9.71099 26.7305ZM30.9347 54.8323C28.2728 58.4957 23.119 59.3266 19.4343 56.6518C15.7537 53.9848 14.9334 48.8315 17.6126 45.1493C20.2884 41.4606 25.4538 40.658 29.113 43.3298C32.7936 45.9967 33.6141 51.1501 30.9347 54.8323V54.8323ZM28.8235 35C28.8235 31.5941 31.5941 28.8235 35 28.8235C38.4059 28.8235 41.1765 31.5941 41.1765 35C41.1765 38.4059 38.4059 41.1765 35 41.1765C31.5941 41.1765 28.8235 38.4059 28.8235 35ZM54.1888 51.2796C53.474 55.825 49.1903 58.8403 44.7673 58.1236C40.2655 57.4109 37.2092 53.1907 37.9233 48.7022C38.6354 44.1742 42.8933 41.1461 47.3448 41.8561C51.8612 42.5739 54.9009 46.805 54.1888 51.2796ZM55.3308 37.1072C51.001 38.5123 46.3629 36.1492 44.9565 31.8173C43.5565 27.5142 45.8933 22.8564 50.2442 21.4409C54.5965 20.0332 59.2172 22.4141 60.6188 26.7307C62.0221 31.0473 59.6495 35.7016 55.3308 37.1072ZM21.4569 30.5467C22.1566 28.3873 20.9743 26.059 18.8149 25.3574C16.6996 24.6657 14.3391 25.7992 13.6278 28.0012C12.928 30.1605 14.1103 32.4888 16.2697 33.1904C18.4619 33.9057 20.7673 32.6805 21.4569 30.5467ZM46.7016 45.9235C44.4544 45.5698 42.3475 47.0949 41.9889 49.3474C41.631 51.5951 43.168 53.7032 45.4108 54.0562C47.6197 54.4176 49.761 52.9114 50.1235 50.6343C50.48 48.3967 48.9574 46.2828 46.7016 45.9235ZM51.5149 25.3574C49.3491 26.0613 48.1672 28.3857 48.873 30.5446C49.5704 32.7074 51.8936 33.8932 54.0602 33.1904C56.2195 32.4888 57.4019 30.1605 56.7021 28.0012C55.9988 25.8244 53.658 24.6567 51.5149 25.3574V25.3574ZM67.9413 65.8823C65.5849 65.8823 63.359 65.0372 61.5717 63.6249C60.5493 64.5752 59.4766 65.4674 58.3564 66.3051C60.9535 68.6167 64.3474 70 67.9413 70C69.0793 70 70 69.0791 70 67.9413C70 66.8032 69.0791 65.8823 67.9413 65.8823V65.8823Z" fill="url(#paint0_linear)"/>
<defs>
<linearGradient id="paint0_linear" x1="35" y1="70" x2="35" y2="0" gradientUnits="userSpaceOnUse">
<stop stop-color="#7FD5F3"/>
<stop offset="1" stop-color="#24BAEF"/>
</linearGradient>
</defs>
</svg>
