<svg width="298" height="121" viewBox="0 0 298 121" fill="none" xmlns="http://www.w3.org/2000/svg">
<path d="M13.4297 21.9609L13.7461 26.2148C16.4414 22.9102 20.0859 21.2578 24.6797 21.2578C29.5781 21.2578 32.9414 23.1914 34.7695 27.0586C37.4414 23.1914 41.25 21.2578 46.1953 21.2578C50.3203 21.2578 53.3906 22.4648 55.4062 24.8789C57.4219 27.2695 58.4297 30.8789 58.4297 35.707V60H48.2344V35.7422C48.2344 33.5859 47.8125 32.0156 46.9688 31.0312C46.125 30.0234 44.6367 29.5195 42.5039 29.5195C39.457 29.5195 37.3477 30.9727 36.1758 33.8789L36.2109 60H26.0508V35.7773C26.0508 33.5742 25.6172 31.9805 24.75 30.9961C23.8828 30.0117 22.4062 29.5195 20.3203 29.5195C17.4375 29.5195 15.3516 30.7148 14.0625 33.1055V60H3.90234V21.9609H13.4297ZM70.4475 40.6289C70.4475 36.8555 71.1741 33.4922 72.6272 30.5391C74.0803 27.5859 76.1663 25.3008 78.885 23.6836C81.6272 22.0664 84.803 21.2578 88.4123 21.2578C93.5452 21.2578 97.7288 22.8281 100.963 25.9688C104.221 29.1094 106.037 33.375 106.412 38.7656L106.483 41.3672C106.483 47.2031 104.854 51.8906 101.596 55.4297C98.3381 58.9453 93.967 60.7031 88.4827 60.7031C82.9983 60.7031 78.6155 58.9453 75.3342 55.4297C72.0764 51.9141 70.4475 47.1328 70.4475 41.0859V40.6289ZM80.6077 41.3672C80.6077 44.9766 81.2873 47.7422 82.6467 49.6641C84.0061 51.5625 85.9514 52.5117 88.4827 52.5117C90.9436 52.5117 92.8655 51.5742 94.2483 49.6992C95.6311 47.8008 96.3225 44.7773 96.3225 40.6289C96.3225 37.0898 95.6311 34.3477 94.2483 32.4023C92.8655 30.457 90.9202 29.4844 88.4123 29.4844C85.928 29.4844 84.0061 30.457 82.6467 32.4023C81.2873 34.3242 80.6077 37.3125 80.6077 41.3672ZM132.176 47.5898L139.243 21.9609H149.86L137.028 60H127.325L114.493 21.9609H125.11L132.176 47.5898ZM170.842 60H160.647V21.9609H170.842V60ZM160.05 12.1172C160.05 10.5938 160.553 9.33984 161.561 8.35547C162.592 7.37109 163.987 6.87891 165.745 6.87891C167.479 6.87891 168.862 7.37109 169.893 8.35547C170.925 9.33984 171.44 10.5938 171.44 12.1172C171.44 13.6641 170.913 14.9297 169.858 15.9141C168.827 16.8984 167.456 17.3906 165.745 17.3906C164.034 17.3906 162.651 16.8984 161.596 15.9141C160.565 14.9297 160.05 13.6641 160.05 12.1172ZM202.513 60.7031C196.935 60.7031 192.388 58.9922 188.872 55.5703C185.38 52.1484 183.634 47.5898 183.634 41.8945V40.9102C183.634 37.0898 184.372 33.6797 185.849 30.6797C187.325 27.6562 189.411 25.3359 192.106 23.7188C194.825 22.0781 197.919 21.2578 201.388 21.2578C206.591 21.2578 210.681 22.8984 213.657 26.1797C216.657 29.4609 218.157 34.1133 218.157 40.1367V44.2852H193.935C194.263 46.7695 195.247 48.7617 196.888 50.2617C198.552 51.7617 200.649 52.5117 203.181 52.5117C207.095 52.5117 210.153 51.0938 212.356 48.2578L217.349 53.8477C215.825 56.0039 213.763 57.6914 211.161 58.9102C208.56 60.1055 205.677 60.7031 202.513 60.7031ZM201.353 29.4844C199.337 29.4844 197.696 30.1641 196.431 31.5234C195.188 32.8828 194.392 34.8281 194.04 37.3594H208.173V36.5508C208.126 34.3008 207.517 32.5664 206.345 31.3477C205.173 30.1055 203.509 29.4844 201.353 29.4844Z" fill="white"/>
<path d="M21.3574 90.0195C21.0645 92.7148 20.0977 94.7773 18.457 96.207C16.8281 97.6367 14.6543 98.3516 11.9355 98.3516C10.0371 98.3516 8.35547 97.877 6.89062 96.9277C5.4375 95.9785 4.3125 94.6367 3.51562 92.9023C2.71875 91.1562 2.31445 89.1641 2.30273 86.9258V83.6035C2.30273 81.3301 2.70117 79.3145 3.49805 77.5566C4.29492 75.7988 5.4375 74.4453 6.92578 73.4961C8.42578 72.5352 10.1484 72.0547 12.0938 72.0547C14.8359 72.0547 16.998 72.7988 18.5801 74.2871C20.1738 75.7637 21.0996 77.8086 21.3574 80.4219H19.1777C18.6387 76.0742 16.2773 73.9004 12.0938 73.9004C9.77344 73.9004 7.92188 74.7676 6.53906 76.502C5.16797 78.2363 4.48242 80.6328 4.48242 83.6914V86.8203C4.48242 89.7734 5.15039 92.1289 6.48633 93.8867C7.83398 95.6445 9.65039 96.5234 11.9355 96.5234C14.1973 96.5234 15.9023 95.9844 17.0508 94.9062C18.1992 93.8164 18.9082 92.1875 19.1777 90.0195H21.3574ZM55.073 96.1719H67.7116V98H52.8933V72.4062H55.073V96.1719ZM115.912 86.5918C115.912 88.9473 115.501 91.0156 114.681 92.7969C113.872 94.5781 112.712 95.9492 111.201 96.9102C109.689 97.8711 107.943 98.3516 105.962 98.3516C102.974 98.3516 100.56 97.2852 98.7202 95.1523C96.8803 93.0078 95.9604 90.1191 95.9604 86.4863V83.8496C95.9604 81.5176 96.3705 79.4551 97.1909 77.6621C98.0229 75.8574 99.1948 74.4746 100.706 73.5137C102.218 72.541 103.958 72.0547 105.927 72.0547C107.896 72.0547 109.63 72.5293 111.13 73.4785C112.642 74.4277 113.808 75.7695 114.628 77.5039C115.449 79.2383 115.876 81.248 115.912 83.5332V86.5918ZM113.749 83.8145C113.749 80.7324 113.052 78.3184 111.658 76.5723C110.263 74.8262 108.353 73.9531 105.927 73.9531C103.548 73.9531 101.65 74.832 100.232 76.5898C98.8256 78.3359 98.1225 80.7793 98.1225 83.9199V86.5918C98.1225 89.627 98.8256 92.0352 100.232 93.8164C101.638 95.5859 103.548 96.4707 105.962 96.4707C108.412 96.4707 110.322 95.5977 111.693 93.8516C113.064 92.0938 113.749 89.6504 113.749 86.5215V83.8145ZM165.272 72.4062V89.8789C165.26 91.6016 164.879 93.1016 164.129 94.3789C163.379 95.6562 162.319 96.6406 160.947 97.332C159.588 98.0117 158.024 98.3516 156.254 98.3516C153.559 98.3516 151.397 97.6191 149.768 96.1543C148.151 94.6777 147.313 92.6387 147.254 90.0371V72.4062H149.399V89.7207C149.399 91.877 150.014 93.5527 151.244 94.748C152.475 95.9316 154.145 96.5234 156.254 96.5234C158.363 96.5234 160.027 95.9258 161.246 94.7305C162.477 93.5352 163.092 91.8711 163.092 89.7383V72.4062H165.272ZM197.581 98V72.4062H204.735C206.833 72.4062 208.714 72.8867 210.378 73.8477C212.042 74.7969 213.337 76.1621 214.263 77.9434C215.2 79.7246 215.669 81.752 215.669 84.0254V86.3809C215.669 88.666 215.206 90.6934 214.28 92.4629C213.354 94.2324 212.048 95.5977 210.36 96.5586C208.684 97.5195 206.757 98 204.577 98H197.581ZM199.743 74.252V96.1719H204.595C207.29 96.1719 209.452 95.2812 211.081 93.5C212.71 91.707 213.524 89.2871 213.524 86.2402V83.9902C213.524 81.0488 212.722 78.6934 211.116 76.9238C209.511 75.1543 207.395 74.2637 204.77 74.252H199.743Z" fill="white"/>
<path d="M263.165 48.5881C265.437 48.5881 267.283 46.7403 267.283 44.4704C267.283 42.2005 265.437 40.3527 263.165 40.3527C260.893 40.3527 259.047 42.2005 259.047 44.4704C259.047 46.7405 260.893 48.5881 263.165 48.5881ZM254.692 74.6613C252.85 73.3185 250.279 73.7316 248.942 75.5701C247.591 77.4286 248.029 80.0005 249.855 81.3203C251.692 82.6593 254.274 82.243 255.605 80.4115C256.956 78.5532 256.518 75.9811 254.692 74.6613ZM263 60.9413C261.866 60.9413 260.941 61.864 260.941 63C260.941 64.136 261.866 65.0587 263 65.0587C264.134 65.0587 265.059 64.136 265.059 63C265.059 61.864 264.134 60.9413 263 60.9413ZM298 63C298 43.7006 282.298 28 263 28C243.702 28 228 43.7006 228 63C228 82.2994 243.702 98 263 98C282.298 98 298 82.2994 298 63ZM263.165 36.2352C267.705 36.2352 271.4 39.9285 271.4 44.4704C271.4 49.0123 267.705 52.7056 263.165 52.7056C258.625 52.7056 254.929 49.0123 254.929 44.4704C254.93 39.9287 258.625 36.2352 263.165 36.2352ZM237.711 54.7305C239.117 50.4012 243.754 48.0346 248.086 49.4406C252.404 50.846 254.777 55.5005 253.373 59.8171C251.968 64.1471 247.33 66.5125 242.999 65.107C238.68 63.7016 236.308 59.0473 237.711 54.7305ZM258.935 82.8323C256.273 86.4957 251.119 87.3266 247.434 84.6518C243.754 81.9848 242.933 76.8315 245.613 73.1493C248.288 69.4606 253.454 68.658 257.113 71.3298C260.794 73.9967 261.614 79.1501 258.935 82.8323ZM256.824 63C256.824 59.5941 259.594 56.8235 263 56.8235C266.406 56.8235 269.176 59.5941 269.176 63C269.176 66.4059 266.406 69.1765 263 69.1765C259.594 69.1765 256.824 66.4059 256.824 63ZM282.189 79.2796C281.474 83.825 277.19 86.8403 272.767 86.1236C268.266 85.4109 265.209 81.1907 265.923 76.7022C266.635 72.1742 270.893 69.1461 275.345 69.8561C279.861 70.5739 282.901 74.805 282.189 79.2796ZM283.331 65.1072C279.001 66.5123 274.363 64.1492 272.956 59.8173C271.556 55.5142 273.893 50.8564 278.244 49.4409C282.597 48.0332 287.217 50.4141 288.619 54.7307C290.022 59.0473 287.65 63.7016 283.331 65.1072ZM249.457 58.5467C250.157 56.3873 248.974 54.059 246.815 53.3574C244.7 52.6657 242.339 53.7992 241.628 56.0012C240.928 58.1605 242.11 60.4888 244.27 61.1904C246.462 61.9057 248.767 60.6805 249.457 58.5467ZM274.702 73.9235C272.454 73.5698 270.347 75.0949 269.989 77.3474C269.631 79.5951 271.168 81.7032 273.411 82.0562C275.62 82.4176 277.761 80.9114 278.123 78.6343C278.48 76.3967 276.957 74.2828 274.702 73.9235ZM279.515 53.3574C277.349 54.0613 276.167 56.3857 276.873 58.5446C277.57 60.7074 279.894 61.8932 282.06 61.1904C284.22 60.4888 285.402 58.1605 284.702 56.0012C283.999 53.8244 281.658 52.6567 279.515 53.3574ZM295.941 93.8823C293.585 93.8823 291.359 93.0372 289.572 91.6249C288.549 92.5752 287.477 93.4674 286.356 94.3051C288.954 96.6167 292.347 98 295.941 98C297.079 98 298 97.0791 298 95.9413C298 94.8032 297.079 93.8823 295.941 93.8823Z" fill="url(#paint0_linear)"/>
<defs>
<linearGradient id="paint0_linear" x1="263" y1="98" x2="263" y2="28" gradientUnits="userSpaceOnUse">
<stop stop-color="#7FD5F3"/>
<stop offset="1" stop-color="#24BAEF"/>
</linearGradient>
</defs>
</svg>
